<svg xmlns="http://www.w3.org/2000/svg" version="1.1" height="600" width="960"><g></g><g transform="translate(480,300)"><text style="font-size: 71px; font-family: Impact; fill: rgb(57, 59, 121);" transform="translate(52,16)rotate(-35.99999933864986)skewX(-3.1805546758693503e-15)scale(1.000000001758865,1.000000001758865)" text-anchor="middle">word</text><text style="font-size: 48px; font-family: Impact; fill: rgb(231, 150, 156);" transform="translate(-137,-81)rotate(-11.999999380000418)skewX(-1.5902773034365522e-15)scale(1.0000000234520143,1.0000000234520143)" text-anchor="middle">code</text><text style="font-size: 48px; font-family: Impact; fill: rgb(123, 65, 115);" transform="translate(165,-178)rotate(35.99999933864986)skewX(3.18055467586935e-15)scale(1.000000001758865,1.000000001758865)" text-anchor="middle">use</text><text style="font-size: 10px; font-family: Impact; fill: rgb(132, 60, 57);" transform="translate(-254,107)rotate(11.99999938000041)skewX(1.5902773034365522e-15)scale(1.0000000234520143,1.0000000234520143)" text-anchor="middle">uses</text><text style="font-size: 10px; font-family: Impact; fill: rgb(107, 110, 207);" transform="translate(36,44)rotate(35.99999933864985)skewX(3.1805546758693503e-15)scale(1.000000001758865,1.000000001758865)" text-anchor="middle">way</text><text style="font-size: 10px; font-family: Impact; fill: rgb(181, 207, 107);" transform="translate(206,13)rotate(35.99999933864986)skewX(3.1805546758693503e-15)scale(1.000000001758865,1.000000001758865)" text-anchor="middle">via</text><text style="font-size: 10px; font-family: Impact; fill: rgb(57, 59, 121);" transform="translate(-57,206)rotate(35.99999933864986)skewX(3.1805546758693503e-15)scale(1.000000001758865,1.000000001758865)" text-anchor="middle">initial</text><text style="font-size: 10px; font-family: Impact; fill: rgb(99, 121, 57);" transform="translate(-36,37)rotate(-59.99999955470795)skewX(0)scale(0.9999999865388264,0.9999999865388264)" text-anchor="middle">per</text><text style="font-size: 100px; font-family: Impact; fill: rgb(107, 110, 207);" transform="translate(47,136)rotate(11.999999380000418)skewX(1.5902773034365522e-15)scale(1.0000000234520143,1.0000000234520143)" text-anchor="middle">sentiment</text><text style="font-size: 55px; font-family: Impact; fill: rgb(181, 207, 107);" transform="translate(-162,60)rotate(-59.99999955470795)scale(0.9999999865388264,0.9999999865388264)" text-anchor="middle">lexicon</text><text style="font-size: 55px; font-family: Impact; fill: rgb(206, 219, 156);" transform="translate(-246,69)rotate(-35.99999933864986)skewX(-3.1805546758693503e-15)scale(1.000000001758865,1.000000001758865)" text-anchor="middle">model</text><text style="font-size: 48px; font-family: Impact; fill: rgb(140, 109, 49);" transform="translate(-273,-197)rotate(35.99999933864986)skewX(3.1805546758693503e-15)scale(1.000000001758865,1.000000001758865)" text-anchor="middle">files</text><text style="font-size: 48px; font-family: Impact; fill: rgb(189, 158, 57);" transform="translate(-342,-42)rotate(35.99999933864986)skewX(3.1805546758693503e-15)scale(1.000000001758865,1.000000001758865)" text-anchor="middle">seed</text><text style="font-size: 29px; font-family: Impact; fill: rgb(231, 150, 156);" transform="translate(-34,-135)rotate(35.99999933864986)skewX(3.18055467586935e-15)scale(1.000000001758865,1.000000001758865)" text-anchor="middle">project</text><text style="font-size: 29px; font-family: Impact; fill: rgb(123, 65, 115);" transform="translate(-396,64)rotate(35.99999933864986)skewX(3.1805546758693503e-15)scale(1.000000001758865,1.000000001758865)" text-anchor="middle">synonyms</text><text style="font-size: 29px; font-family: Impact; fill: rgb(165, 81, 148);" transform="translate(362,224)rotate(11.99999938000041)skewX(1.5902773034365522e-15)scale(1.0000000234520143,1.0000000234520143)" text-anchor="middle">antonyms</text><text style="font-size: 29px; font-family: Impact; fill: rgb(206, 109, 189);" transform="translate(109,19)rotate(-35.99999933864986)skewX(-3.1805546758693503e-15)scale(1.000000001758865,1.000000001758865)" text-anchor="middle">file</text><text style="font-size: 29px; font-family: Impact; fill: rgb(222, 158, 214);" transform="translate(-213,235)rotate(-35.99999933864986)skewX(-3.1805546758693503e-15)scale(1.000000001758865,1.000000001758865)" text-anchor="middle">expanded</text><text style="font-size: 29px; font-family: Impact; fill: rgb(57, 59, 121);" transform="translate(196,79)rotate(-35.99999933864986)skewX(-3.1805546758693503e-15)scale(1.000000001758865,1.000000001758865)" text-anchor="middle">lists</text><text style="font-size: 29px; font-family: Impact; fill: rgb(107, 110, 207);" transform="translate(407,-84)rotate(-59.99999955470795)skewX(0)scale(0.9999999865388264,0.9999999865388264)" text-anchor="middle">positive</text><text style="font-size: 29px; font-family: Impact; fill: rgb(99, 121, 57);" transform="translate(-214,193)rotate(-35.99999933864985)skewX(-3.1805546758693503e-15)scale(1.000000001758865,1.000000001758865)" text-anchor="middle">tagger</text><text style="font-size: 68px; font-family: Impact; fill: rgb(206, 219, 156);" transform="translate(22,196)rotate(-11.999999380000418)skewX(-1.5902773034365522e-15)scale(1.0000000234520143,1.0000000234520143)" text-anchor="middle">Also</text><text style="font-size: 29px; font-family: Impact; fill: rgb(231, 186, 82);" transform="translate(-167,-27)rotate(-11.999999380000418)skewX(-1.5902773034365522e-15)scale(1.0000000234520143,1.0000000234520143)" text-anchor="middle">order</text><text style="font-size: 10px; font-family: Impact; fill: rgb(173, 73, 74);" transform="translate(-94,-119)rotate(59.99999955470795)skewX(0)scale(0.9999999865388264,0.9999999865388264)" text-anchor="middle">5</text><text style="font-size: 10px; font-family: Impact; fill: rgb(214, 97, 107);" transform="translate(-238,86)rotate(-11.999999380000418)skewX(-1.5902773034365522e-15)scale(1.0000000234520143,1.0000000234520143)" text-anchor="middle">creation</text><text style="font-size: 10px; font-family: Impact; fill: rgb(231, 150, 156);" transform="translate(199,39)rotate(-35.99999933864986)skewX(-3.1805546758693503e-15)scale(1.000000001758865,1.000000001758865)" text-anchor="middle">expansion</text><text style="font-size: 10px; font-family: Impact; fill: rgb(123, 65, 115);" transform="translate(-107,-2)rotate(-59.99999955470795)scale(0.9999999865388264,0.9999999865388264)" text-anchor="middle">SynonymAPIjava</text><text style="font-size: 48px; font-family: Impact; fill: rgb(165, 81, 148);" transform="translate(-72,191)rotate(-59.99999955470795)skewX(0)scale(0.9999999865388264,0.9999999865388264)" text-anchor="middle">extract</text><text style="font-size: 10px; font-family: Impact; fill: rgb(206, 109, 189);" transform="translate(-180,10)rotate(-59.99999955470795)scale(0.9999999865388264,0.9999999865388264)" text-anchor="middle">txtfile</text><text style="font-size: 10px; font-family: Impact; fill: rgb(222, 158, 214);" transform="translate(-45,28)rotate(-59.99999955470795)skewX(0)scale(0.9999999865388264,0.9999999865388264)" text-anchor="middle">website</text><text style="font-size: 10px; font-family: Impact; fill: rgb(57, 59, 121);" transform="translate(53,-173)rotate(35.99999933864986)skewX(3.1805546758693503e-15)scale(1.000000001758865,1.000000001758865)" text-anchor="middle">wwwsynonymerse</text><text style="font-size: 10px; font-family: Impact; fill: rgb(82, 84, 163);" transform="translate(213,84)rotate(11.999999380000418)skewX(1.5902773034365522e-15)scale(1.0000000234520143,1.0000000234520143)" text-anchor="middle">list</text><text style="font-size: 10px; font-family: Impact; fill: rgb(107, 110, 207);" transform="translate(-169,105)rotate(-59.99999955470795)skewX(0)scale(0.9999999865388264,0.9999999865388264)" text-anchor="middle">created</text><text style="font-size: 10px; font-family: Impact; fill: rgb(156, 158, 222);" transform="translate(131,163)rotate(35.99999933864986)skewX(3.1805546758693503e-15)scale(1.000000001758865,1.000000001758865)" text-anchor="middle">basis</text><text style="font-size: 10px; font-family: Impact; fill: rgb(99, 121, 57);" transform="translate(-201,-47)rotate(11.999999380000418)skewX(1.5902773034365522e-15)scale(1.0000000234520143,1.0000000234520143)" text-anchor="middle">Naive</text><text style="font-size: 10px; font-family: Impact; fill: rgb(140, 162, 82);" transform="translate(157,-90)rotate(-35.99999933864986)skewX(-3.18055467586935e-15)scale(1.000000001758865,1.000000001758865)" text-anchor="middle">Bayes</text><text style="font-size: 10px; font-family: Impact; fill: rgb(181, 207, 107);" transform="translate(278,161)rotate(-11.999999380000416)skewX(-1.590277303436552e-15)scale(1.0000000234520143,1.0000000234520143)" text-anchor="middle">Averaging</text><text style="font-size: 10px; font-family: Impact; fill: rgb(206, 219, 156);" transform="translate(-184,245)rotate(35.99999933864986)skewX(3.1805546758693503e-15)scale(1.000000001758865,1.000000001758865)" text-anchor="middle">Method</text><text style="font-size: 10px; font-family: Impact; fill: rgb(140, 109, 49);" transform="translate(-222,-13)rotate(-59.99999955470795)scale(0.9999999865388264,0.9999999865388264)" text-anchor="middle">aggregated</text><text style="font-size: 10px; font-family: Impact; fill: rgb(189, 158, 57);" transform="translate(217,-196)rotate(59.99999955470795)skewX(0)scale(0.9999999865388264,0.9999999865388264)" text-anchor="middle">detailed</text><text style="font-size: 10px; font-family: Impact; fill: rgb(231, 186, 82);" transform="translate(112,-68)rotate(-11.999999380000418)skewX(-1.5902773034365522e-15)scale(1.0000000234520143,1.0000000234520143)" text-anchor="middle">description</text><text style="font-size: 10px; font-family: Impact; fill: rgb(231, 203, 148);" transform="translate(-327,16)rotate(59.99999955470795)skewX(0)scale(0.9999999865388264,0.9999999865388264)" text-anchor="middle">process</text><text style="font-size: 10px; font-family: Impact; fill: rgb(132, 60, 57);" transform="translate(163,171)rotate(-11.999999380000418)skewX(-1.5902773034365522e-15)scale(1.0000000234520143,1.0000000234520143)" text-anchor="middle">read</text><text style="font-size: 10px; font-family: Impact; fill: rgb(173, 73, 74);" transform="translate(-156,102)rotate(59.99999955470795)skewX(0)scale(0.9999999865388264,0.9999999865388264)" text-anchor="middle">pdf</text><text style="font-size: 10px; font-family: Impact; fill: rgb(214, 97, 107);" transform="translate(-327,-8)rotate(59.99999955470795)scale(0.9999999865388264,0.9999999865388264)" text-anchor="middle">Building</text><text style="font-size: 10px; font-family: Impact; fill: rgb(231, 150, 156);" transform="translate(-166,-58)rotate(-35.99999933864986)skewX(-3.18055467586935e-15)scale(1.000000001758865,1.000000001758865)" text-anchor="middle">contain</text><text style="font-size: 29px; font-family: Impact; fill: rgb(123, 65, 115);" transform="translate(404,37)rotate(11.99999938000041)skewX(1.5902773034365522e-15)scale(1.0000000234520143,1.0000000234520143)" text-anchor="middle">based</text><text style="font-size: 10px; font-family: Impact; fill: rgb(165, 81, 148);" transform="translate(430,257)rotate(-35.99999933864986)skewX(-3.1805546758693503e-15)scale(1.000000001758865,1.000000001758865)" text-anchor="middle">adjectives+adjverbs</text><text style="font-size: 10px; font-family: Impact; fill: rgb(206, 109, 189);" transform="translate(-95,259)rotate(-11.999999380000418)skewX(-1.5902773034365522e-15)scale(1.0000000234520143,1.0000000234520143)" text-anchor="middle">NaiveBayesTestjava</text><text style="font-size: 10px; font-family: Impact; fill: rgb(222, 158, 214);" transform="translate(-129,151)rotate(-35.99999933864986)skewX(-3.1805546758693503e-15)scale(1.000000001758865,1.000000001758865)" text-anchor="middle">runs</text><text style="font-size: 48px; font-family: Impact; fill: rgb(57, 59, 121);" transform="translate(-379,6)rotate(59.99999955470794)skewX(0)scale(0.9999999865388264,0.9999999865388264)" text-anchor="middle">methods</text><text style="font-size: 10px; font-family: Impact; fill: rgb(82, 84, 163);" transform="translate(-263,233)rotate(-59.99999955470795)skewX(0)scale(0.9999999865388264,0.9999999865388264)" text-anchor="middle">Stockholm</text><text style="font-size: 10px; font-family: Impact; fill: rgb(107, 110, 207);" transform="translate(299,-146)rotate(-59.99999955470795)skewX(0)scale(0.9999999865388264,0.9999999865388264)" text-anchor="middle">partofspeech</text><text style="font-size: 10px; font-family: Impact; fill: rgb(156, 158, 222);" transform="translate(-79,-102)rotate(59.99999955470795)skewX(0)scale(0.9999999865388264,0.9999999865388264)" text-anchor="middle">tag</text><text style="font-size: 10px; font-family: Impact; fill: rgb(99, 121, 57);" transform="translate(294,-41)rotate(35.99999933864986)skewX(3.1805546758693503e-15)scale(1.000000001758865,1.000000001758865)" text-anchor="middle">include</text><text style="font-size: 10px; font-family: Impact; fill: rgb(132, 60, 57);" transform="translate(198,93)rotate(59.99999955470795)skewX(0)scale(0.9999999865388264,0.9999999865388264)" text-anchor="middle">och</text><text style="font-size: 29px; font-family: Impact; fill: rgb(165, 81, 148);" transform="translate(400,168)rotate(11.999999380000418)skewX(1.5902773034365522e-15)scale(1.0000000234520143,1.0000000234520143)" text-anchor="middle">text</text><text style="font-size: 10px; font-family: Impact; fill: rgb(231, 186, 82);" transform="translate(-259,-111)rotate(-11.999999380000416)skewX(-1.590277303436552e-15)scale(1.0000000234520143,1.0000000234520143)" text-anchor="middle">vara</text><text style="font-size: 29px; font-family: Impact; fill: rgb(140, 162, 82);" transform="translate(73,-125)rotate(-11.999999380000418)skewX(-1.5902773034365522e-15)scale(1.0000000234520143,1.0000000234520143)" text-anchor="middle">since</text><text style="font-size: 29px; font-family: Impact; fill: rgb(82, 84, 163);" transform="translate(372,-108)rotate(-35.99999933864986)skewX(-3.1805546758693503e-15)scale(1.000000001758865,1.000000001758865)" text-anchor="middle">negative</text><text style="font-size: 29px; font-family: Impact; fill: rgb(140, 162, 82);" transform="translate(-356,-230)rotate(35.99999933864986)skewX(3.18055467586935e-15)scale(1.000000001758865,1.000000001758865)" text-anchor="middle">Stagger</text><text style="font-size: 29px; font-family: Impact; fill: rgb(231, 203, 148);" transform="translate(-397,-165)rotate(11.999999380000418)skewX(1.5902773034365522e-15)scale(1.0000000234520143,1.0000000234520143)" text-anchor="middle">negation</text><text style="font-size: 10px; font-family: Impact; fill: rgb(181, 207, 107);" transform="translate(231,-28)rotate(-59.99999955470795)scale(0.9999999865388264,0.9999999865388264)" text-anchor="middle">big</text><text style="font-size: 10px; font-family: Impact; fill: rgb(206, 219, 156);" transform="translate(275,128)rotate(59.99999955470795)skewX(0)scale(0.9999999865388264,0.9999999865388264)" text-anchor="middle">upload</text><text style="font-size: 10px; font-family: Impact; fill: rgb(140, 162, 82);" transform="translate(13,140)rotate(11.999999380000416)skewX(1.590277303436552e-15)scale(1.0000000234520143,1.0000000234520143)" text-anchor="middle">works</text><text style="font-size: 10px; font-family: Impact; fill: rgb(140, 109, 49);" transform="translate(-197,-9)rotate(11.999999380000418)skewX(1.5902773034365522e-15)scale(1.0000000234520143,1.0000000234520143)" text-anchor="middle">POSfile</text><text style="font-size: 10px; font-family: Impact; fill: rgb(189, 158, 57);" transform="translate(375,-85)rotate(-59.99999955470795)skewX(0)scale(0.9999999865388264,0.9999999865388264)" text-anchor="middle">swedishbin</text><text style="font-size: 29px; font-family: Impact; fill: rgb(231, 203, 148);" transform="translate(220,64)rotate(59.99999955470794)skewX(0)scale(0.9999999865388264,0.9999999865388264)" text-anchor="middle">used</text><text style="font-size: 10px; font-family: Impact; fill: rgb(132, 60, 57);" transform="translate(122,-13)rotate(-11.999999380000418)skewX(-1.5902773034365522e-15)scale(1.0000000234520143,1.0000000234520143)" text-anchor="middle">anyways</text><text style="font-size: 10px; font-family: Impact; fill: rgb(173, 73, 74);" transform="translate(-11,140)rotate(-35.99999933864986)skewX(-3.18055467586935e-15)scale(1.000000001758865,1.000000001758865)" text-anchor="middle">want</text><text style="font-size: 10px; font-family: Impact; fill: rgb(214, 97, 107);" transform="translate(-271,-89)rotate(35.99999933864986)skewX(3.1805546758693503e-15)scale(1.000000001758865,1.000000001758865)" text-anchor="middle">called</text><text style="font-size: 10px; font-family: Impact; fill: rgb(231, 150, 156);" transform="translate(427,-51)rotate(59.99999955470795)skewX(0)scale(0.9999999865388264,0.9999999865388264)" text-anchor="middle">swemalt172mco</text><text style="font-size: 10px; font-family: Impact; fill: rgb(123, 65, 115);" transform="translate(14,268)rotate(-11.999999380000416)skewX(-1.590277303436552e-15)scale(1.0000000234520143,1.0000000234520143)" text-anchor="middle">SentenceClassifierNBjava</text><text style="font-size: 10px; font-family: Impact; fill: rgb(206, 109, 189);" transform="translate(243,99)rotate(-11.999999380000418)skewX(-1.5902773034365522e-15)scale(1.0000000234520143,1.0000000234520143)" text-anchor="middle">includes</text><text style="font-size: 10px; font-family: Impact; fill: rgb(222, 158, 214);" transform="translate(-5,-32)rotate(59.99999955470795)skewX(0)scale(0.9999999865388264,0.9999999865388264)" text-anchor="middle">handler</text><text style="font-size: 10px; font-family: Impact; fill: rgb(57, 59, 121);" transform="translate(239,-207)rotate(-59.99999955470794)skewX(0)scale(0.9999999865388264,0.9999999865388264)" text-anchor="middle">flags</text><text style="font-size: 10px; font-family: Impact; fill: rgb(82, 84, 163);" transform="translate(-245,177)rotate(-11.999999380000416)skewX(-1.590277303436552e-15)scale(1.0000000234520143,1.0000000234520143)" text-anchor="middle">negations</text><text style="font-size: 10px; font-family: Impact; fill: rgb(107, 110, 207);" transform="translate(-82,-17)rotate(-59.99999955470794)skewX(0)scale(0.9999999865388264,0.9999999865388264)" text-anchor="middle">reverses</text><text style="font-size: 10px; font-family: Impact; fill: rgb(156, 158, 222);" transform="translate(-274,114)rotate(11.999999380000418)skewX(1.5902773034365522e-15)scale(1.0000000234520143,1.0000000234520143)" text-anchor="middle">within</text><text style="font-size: 10px; font-family: Impact; fill: rgb(99, 121, 57);" transform="translate(362,-171)rotate(-11.99999938000041)skewX(-1.5902773034365522e-15)scale(1.0000000234520143,1.0000000234520143)" text-anchor="middle">default</text><text style="font-size: 10px; font-family: Impact; fill: rgb(140, 162, 82);" transform="translate(359,-2)rotate(35.99999933864986)skewX(3.1805546758693503e-15)scale(1.000000001758865,1.000000001758865)" text-anchor="middle">easily</text><text style="font-size: 10px; font-family: Impact; fill: rgb(181, 207, 107);" transform="translate(101,-214)rotate(35.99999933864986)skewX(3.1805546758693503e-15)scale(1.000000001758865,1.000000001758865)" text-anchor="middle">changed</text><text style="font-size: 10px; font-family: Impact; fill: rgb(206, 219, 156);" transform="translate(-9,-209)rotate(11.999999380000416)skewX(1.590277303436552e-15)scale(1.0000000234520143,1.0000000234520143)" text-anchor="middle">matches</text><text style="font-size: 10px; font-family: Impact; fill: rgb(140, 109, 49);" transform="translate(-210,257)rotate(-59.99999955470795)skewX(0)scale(0.9999999865388264,0.9999999865388264)" text-anchor="middle">idiomatic</text><text style="font-size: 10px; font-family: Impact; fill: rgb(189, 158, 57);" transform="translate(-196,4)rotate(35.99999933864986)skewX(3.1805546758693503e-15)scale(1.000000001758865,1.000000001758865)" text-anchor="middle">ex</text><text style="font-size: 10px; font-family: Impact; fill: rgb(231, 203, 148);" transform="translate(-116,-19)rotate(-11.999999380000418)skewX(-1.5902773034365522e-15)scale(1.0000000234520143,1.0000000234520143)" text-anchor="middle">ute</text><text style="font-size: 10px; font-family: Impact; fill: rgb(173, 73, 74);" transform="translate(-190,147)rotate(35.99999933864986)skewX(3.1805546758693503e-15)scale(1.000000001758865,1.000000001758865)" text-anchor="middle">cyklar</text><text style="font-size: 10px; font-family: Impact; fill: rgb(214, 97, 107);" transform="translate(426,-141)rotate(59.99999955470795)scale(0.9999999865388264,0.9999999865388264)" text-anchor="middle">meaning</text><text style="font-size: 10px; font-family: Impact; fill: rgb(231, 150, 156);" transform="translate(-313,-64)rotate(35.99999933864985)skewX(3.1805546758693503e-15)scale(1.000000001758865,1.000000001758865)" text-anchor="middle">confused</text><text style="font-size: 10px; font-family: Impact; fill: rgb(123, 65, 115);" transform="translate(-413,-29)rotate(59.99999955470795)scale(0.9999999865388264,0.9999999865388264)" text-anchor="middle">misunderstood</text><text style="font-size: 10px; font-family: Impact; fill: rgb(165, 81, 148);" transform="translate(-194,-60)rotate(-11.999999380000418)skewX(-1.5902773034365522e-15)scale(1.0000000234520143,1.0000000234520143)" text-anchor="middle">verb</text><text style="font-size: 40px; font-family: Impact; fill: rgb(206, 109, 189);" transform="translate(-340,-178)rotate(35.99999933864986)skewX(3.1805546758693503e-15)scale(1.000000001758865,1.000000001758865)" text-anchor="middle">may</text><text style="font-size: 40px; font-family: Impact; fill: rgb(222, 158, 214);" transform="translate(-357,170)rotate(11.999999380000418)skewX(1.5902773034365522e-15)scale(1.0000000234520143,1.0000000234520143)" text-anchor="middle">classified</text><text style="font-size: 10px; font-family: Impact; fill: rgb(57, 59, 121);" transform="translate(-330,-90)rotate(-35.99999933864986)skewX(-3.1805546758693503e-15)scale(1.000000001758865,1.000000001758865)" text-anchor="middle">finds</text><text style="font-size: 10px; font-family: Impact; fill: rgb(82, 84, 163);" transform="translate(-279,-182)rotate(11.999999380000418)skewX(1.5902773034365522e-15)scale(1.0000000234520143,1.0000000234520143)" text-anchor="middle">matching</text><text style="font-size: 10px; font-family: Impact; fill: rgb(107, 110, 207);" transform="translate(-186,260)rotate(35.99999933864986)skewX(3.1805546758693503e-15)scale(1.000000001758865,1.000000001758865)" text-anchor="middle">replaces</text><text style="font-size: 29px; font-family: Impact; fill: rgb(165, 81, 148);" transform="translate(124,-38)rotate(11.999999380000416)skewX(1.590277303436552e-15)scale(1.0000000234520143,1.0000000234520143)" text-anchor="middle">One</text><text style="font-size: 29px; font-family: Impact; fill: rgb(156, 158, 222);" transform="translate(-60,-116)rotate(59.99999955470795)scale(0.9999999865388264,0.9999999865388264)" text-anchor="middle">get</text><text style="font-size: 10px; font-family: Impact; fill: rgb(99, 121, 57);" transform="translate(144,-62)rotate(-35.99999933864986)skewX(-3.18055467586935e-15)scale(1.000000001758865,1.000000001758865)" text-anchor="middle">total</text><text style="font-size: 29px; font-family: Impact; fill: rgb(140, 162, 82);" transform="translate(-298,-76)rotate(35.99999933864986)skewX(3.1805546758693503e-15)scale(1.000000001758865,1.000000001758865)" text-anchor="middle">right</text><text style="font-size: 48px; font-family: Impact; fill: rgb(189, 158, 57);" transform="translate(254,66)rotate(59.99999955470795)skewX(0)scale(0.9999999865388264,0.9999999865388264)" text-anchor="middle">program</text><text style="font-size: 92px; font-family: Impact; fill: rgb(173, 73, 74);" transform="translate(226,-44)rotate(-59.99999955470794)skewX(0)scale(0.9999999865388264,0.9999999865388264)" text-anchor="middle">analysis</text><text style="font-size: 71px; font-family: Impact; fill: rgb(99, 121, 57);" transform="translate(5,-58)rotate(-11.999999380000418)skewX(-1.5902773034365522e-15)scale(1.0000000234520143,1.0000000234520143)" text-anchor="middle">sentence</text><text style="font-size: 68px; font-family: Impact; fill: rgb(156, 158, 222);" transform="translate(77,-170)rotate(35.99999933864986)skewX(3.1805546758693503e-15)scale(1.000000001758865,1.000000001758865)" text-anchor="middle">Swedish</text><text style="font-size: 68px; font-family: Impact; fill: rgb(82, 84, 163);" transform="translate(-231,-34)rotate(-59.99999955470795)skewX(0)scale(0.9999999865388264,0.9999999865388264)" text-anchor="middle">words</text><text style="font-size: 64px; font-family: Impact; fill: rgb(140, 162, 82);" transform="translate(-252,-123)rotate(-11.999999380000418)skewX(-1.5902773034365522e-15)scale(1.0000000234520143,1.0000000234520143)" text-anchor="middle">classification</text><text style="font-size: 48px; font-family: Impact; fill: rgb(181, 207, 107);" transform="translate(-311,143)rotate(11.999999380000418)skewX(1.5902773034365522e-15)scale(1.0000000234520143,1.0000000234520143)" text-anchor="middle">sentences</text><text style="font-size: 48px; font-family: Impact; fill: rgb(231, 186, 82);" transform="translate(-47,9)rotate(-35.99999933864986)skewX(-3.1805546758693503e-15)scale(1.000000001758865,1.000000001758865)" text-anchor="middle">verbs</text><text style="font-size: 48px; font-family: Impact; fill: rgb(206, 219, 156);" transform="translate(296,57)rotate(59.99999955470794)skewX(0)scale(0.9999999865388264,0.9999999865388264)" text-anchor="middle">information</text><text style="font-size: 48px; font-family: Impact; fill: rgb(140, 109, 49);" transform="translate(-34,-174)rotate(35.99999933864986)skewX(3.1805546758693503e-15)scale(1.000000001758865,1.000000001758865)" text-anchor="middle">applied</text><text style="font-size: 48px; font-family: Impact; fill: rgb(189, 158, 57);" transform="translate(303,194)rotate(-35.99999933864986)skewX(-3.1805546758693503e-15)scale(1.000000001758865,1.000000001758865)" text-anchor="middle">affect</text><text style="font-size: 48px; font-family: Impact; fill: rgb(231, 186, 82);" transform="translate(260,-219)rotate(35.99999933864986)skewX(3.1805546758693503e-15)scale(1.000000001758865,1.000000001758865)" text-anchor="middle">semantic</text><text style="font-size: 40px; font-family: Impact; fill: rgb(231, 203, 148);" transform="translate(321,-106)rotate(-35.99999933864986)skewX(-3.1805546758693503e-15)scale(1.000000001758865,1.000000001758865)" text-anchor="middle">contains</text><text style="font-size: 40px; font-family: Impact; fill: rgb(231, 203, 148);" transform="translate(147,-228)rotate(11.99999938000041)skewX(1.5902773034365522e-15)scale(1.0000000234520143,1.0000000234520143)" text-anchor="middle">natural</text><text style="font-size: 40px; font-family: Impact; fill: rgb(132, 60, 57);" transform="translate(154,205)rotate(11.999999380000418)skewX(1.5902773034365522e-15)scale(1.0000000234520143,1.0000000234520143)" text-anchor="middle">language</text><text style="font-size: 40px; font-family: Impact; fill: rgb(173, 73, 74);" transform="translate(62,49)rotate(59.99999955470795)scale(0.9999999865388264,0.9999999865388264)" text-anchor="middle">see</text><text style="font-size: 40px; font-family: Impact; fill: rgb(214, 97, 107);" transform="translate(-87,-237)rotate(-35.99999933864986)skewX(-3.1805546758693503e-15)scale(1.000000001758865,1.000000001758865)" text-anchor="middle">affective</text><text style="font-size: 40px; font-family: Impact; fill: rgb(231, 150, 156);" transform="translate(-133,139)rotate(-11.999999380000418)skewX(-1.5902773034365522e-15)scale(1.0000000234520143,1.0000000234520143)" text-anchor="middle">state</text><text style="font-size: 40px; font-family: Impact; fill: rgb(123, 65, 115);" transform="translate(-359,206)rotate(11.999999380000416)skewX(1.5902773034365522e-15)scale(1.0000000234520143,1.0000000234520143)" text-anchor="middle">emotional</text><text style="font-size: 40px; font-family: Impact; fill: rgb(206, 109, 189);" transform="translate(-169,-232)rotate(-59.99999955470794)skewX(0)scale(0.9999999865388264,0.9999999865388264)" text-anchor="middle">affinity</text><text style="font-size: 40px; font-family: Impact; fill: rgb(222, 158, 214);" transform="translate(-99,168)rotate(-59.99999955470795)skewX(0)scale(0.9999999865388264,0.9999999865388264)" text-anchor="middle">ie</text><text style="font-size: 40px; font-family: Impact; fill: rgb(57, 59, 121);" transform="translate(345,52)rotate(59.99999955470794)skewX(0)scale(0.9999999865388264,0.9999999865388264)" text-anchor="middle">concepts</text><text style="font-size: 40px; font-family: Impact; fill: rgb(82, 84, 163);" transform="translate(344,-27)rotate(35.99999933864986)skewX(3.1805546758693503e-15)scale(1.000000001758865,1.000000001758865)" text-anchor="middle">systems</text><text style="font-size: 40px; font-family: Impact; fill: rgb(107, 110, 207);" transform="translate(-280,-253)rotate(11.999999380000418)skewX(1.5902773034365522e-15)scale(1.0000000234520143,1.0000000234520143)" text-anchor="middle">human</text><text style="font-size: 40px; font-family: Impact; fill: rgb(123, 65, 115);" transform="translate(-165,194)rotate(59.99999955470795)skewX(0)scale(0.9999999865388264,0.9999999865388264)" text-anchor="middle">time</text><text style="font-size: 29px; font-family: Impact; fill: rgb(181, 207, 107);" transform="translate(-26,233)rotate(-11.999999380000418)skewX(-1.5902773034365522e-15)scale(1.0000000234520143,1.0000000234520143)" text-anchor="middle">download</text><text style="font-size: 29px; font-family: Impact; fill: rgb(132, 60, 57);" transform="translate(383,196)rotate(11.999999380000418)skewX(1.5902773034365522e-15)scale(1.0000000234520143,1.0000000234520143)" text-anchor="middle">window</text><text style="font-size: 29px; font-family: Impact; fill: rgb(231, 203, 148);" transform="translate(-411,-234)rotate(-59.99999955470795)scale(0.9999999865388264,0.9999999865388264)" text-anchor="middle">source</text><text style="font-size: 29px; font-family: Impact; fill: rgb(99, 121, 57);" transform="translate(407,91)rotate(59.99999955470794)skewX(0)scale(0.9999999865388264,0.9999999865388264)" text-anchor="middle">reviews</text><text style="font-size: 29px; font-family: Impact; fill: rgb(140, 162, 82);" transform="translate(77,-267)rotate(-11.999999380000418)skewX(-1.5902773034365522e-15)scale(1.0000000234520143,1.0000000234520143)" text-anchor="middle">social</text><text style="font-size: 29px; font-family: Impact; fill: rgb(189, 158, 57);" transform="translate(411,-22)rotate(59.99999955470795)skewX(0)scale(0.9999999865388264,0.9999999865388264)" text-anchor="middle">target</text><text style="font-size: 29px; font-family: Impact; fill: rgb(231, 186, 82);" transform="translate(-164,-113)rotate(-11.99999938000041)skewX(-1.5902773034365522e-15)scale(1.0000000234520143,1.0000000234520143)" text-anchor="middle">able</text><text style="font-size: 29px; font-family: Impact; fill: rgb(231, 203, 148);" transform="translate(38,-41)rotate(-59.99999955470795)scale(0.9999999865388264,0.9999999865388264)" text-anchor="middle">eg</text><text style="font-size: 29px; font-family: Impact; fill: rgb(231, 186, 82);" transform="translate(-422,91)rotate(-11.999999380000418)skewX(-1.5902773034365522e-15)scale(1.0000000234520143,1.0000000234520143)" text-anchor="middle">open</text><text style="font-size: 29px; font-family: Impact; fill: rgb(132, 60, 57);" transform="translate(-20,-241)rotate(-59.99999955470794)skewX(0)scale(0.9999999865388264,0.9999999865388264)" text-anchor="middle">web</text><text style="font-size: 29px; font-family: Impact; fill: rgb(173, 73, 74);" transform="translate(-414,21)rotate(35.99999933864986)skewX(3.1805546758693503e-15)scale(1.000000001758865,1.000000001758865)" text-anchor="middle">online</text><text style="font-size: 29px; font-family: Impact; fill: rgb(214, 97, 107);" transform="translate(-328,249)rotate(35.99999933864985)skewX(3.1805546758693503e-15)scale(1.000000001758865,1.000000001758865)" text-anchor="middle">visual</text><text style="font-size: 29px; font-family: Impact; fill: rgb(231, 150, 156);" transform="translate(-94,-128)rotate(-11.999999380000416)skewX(-1.5902773034365522e-15)scale(1.0000000234520143,1.0000000234520143)" text-anchor="middle">let</text><text style="font-size: 29px; font-family: Impact; fill: rgb(123, 65, 115);" transform="translate(-168,237)rotate(35.99999933864986)skewX(3.1805546758693503e-15)scale(1.000000001758865,1.000000001758865)" text-anchor="middle">dog</text><text style="font-size: 29px; font-family: Impact; fill: rgb(165, 81, 148);" transform="translate(149,-267)rotate(-11.999999380000416)skewX(-1.5902773034365522e-15)scale(1.0000000234520143,1.0000000234520143)" text-anchor="middle">stay</text><text style="font-size: 29px; font-family: Impact; fill: rgb(107, 110, 207);" transform="translate(-224,-272)rotate(11.999999380000418)skewX(1.5902773034365522e-15)scale(1.0000000234520143,1.0000000234520143)" text-anchor="middle">tree</text><text style="font-size: 29px; font-family: Impact; fill: rgb(206, 109, 189);" transform="translate(411,-268)rotate(35.99999933864985)skewX(3.1805546758693503e-15)scale(1.000000001758865,1.000000001758865)" text-anchor="middle">well</text><text style="font-size: 29px; font-family: Impact; fill: rgb(222, 158, 214);" transform="translate(-6,256)rotate(-11.999999380000418)skewX(-1.5902773034365522e-15)scale(1.0000000234520143,1.0000000234520143)" text-anchor="middle">value</text><text style="font-size: 10px; font-family: Impact; fill: rgb(57, 59, 121);" transform="translate(-196,-75)rotate(11.999999380000418)skewX(1.5902773034365522e-15)scale(1.0000000234520143,1.0000000234520143)" text-anchor="middle">20</text><text style="font-size: 10px; font-family: Impact; fill: rgb(82, 84, 163);" transform="translate(-85,136)rotate(-35.99999933864986)skewX(-3.1805546758693503e-15)scale(1.000000001758865,1.000000001758865)" text-anchor="middle">23</text><text style="font-size: 10px; font-family: Impact; fill: rgb(107, 110, 207);" transform="translate(-294,239)rotate(11.99999938000041)skewX(1.5902773034365522e-15)scale(1.0000000234520143,1.0000000234520143)" text-anchor="middle">known</text><text style="font-size: 10px; font-family: Impact; fill: rgb(156, 158, 222);" transform="translate(-19,5)rotate(-35.99999933864986)skewX(-3.1805546758693503e-15)scale(1.000000001758865,1.000000001758865)" text-anchor="middle">mining</text><text style="font-size: 10px; font-family: Impact; fill: rgb(99, 121, 57);" transform="translate(220,-224)rotate(59.99999955470795)skewX(0)scale(0.9999999865388264,0.9999999865388264)" text-anchor="middle">refers</text><text style="font-size: 10px; font-family: Impact; fill: rgb(140, 162, 82);" transform="translate(-415,268)rotate(-35.99999933864986)skewX(-3.1805546758693503e-15)scale(1.000000001758865,1.000000001758865)" text-anchor="middle">computational</text><text style="font-size: 10px; font-family: Impact; fill: rgb(181, 207, 107);" transform="translate(214,267)rotate(-11.999999380000418)skewX(-1.5902773034365522e-15)scale(1.0000000234520143,1.0000000234520143)" text-anchor="middle">linguistics</text><text style="font-size: 10px; font-family: Impact; fill: rgb(206, 219, 156);" transform="translate(-238,225)rotate(-35.99999933864985)skewX(-3.1805546758693503e-15)scale(1.000000001758865,1.000000001758865)" text-anchor="middle">identify</text><text style="font-size: 10px; font-family: Impact; fill: rgb(140, 109, 49);" transform="translate(439,-103)rotate(-35.99999933864986)skewX(-3.1805546758693503e-15)scale(1.000000001758865,1.000000001758865)" text-anchor="middle">subjective</text><text style="font-size: 10px; font-family: Impact; fill: rgb(189, 158, 57);" transform="translate(177,270)rotate(-59.99999955470794)skewX(0)scale(0.9999999865388264,0.9999999865388264)" text-anchor="middle">materials</text><text style="font-size: 10px; font-family: Impact; fill: rgb(231, 186, 82);" transform="translate(-170,-203)rotate(-59.99999955470795)skewX(0)scale(0.9999999865388264,0.9999999865388264)" text-anchor="middle">widely</text><text style="font-size: 10px; font-family: Impact; fill: rgb(231, 203, 148);" transform="translate(-233,-219)rotate(11.999999380000416)skewX(1.5902773034365522e-15)scale(1.0000000234520143,1.0000000234520143)" text-anchor="middle">media</text><text style="font-size: 10px; font-family: Impact; fill: rgb(132, 60, 57);" transform="translate(-135,184)rotate(59.99999955470795)scale(0.9999999865388264,0.9999999865388264)" text-anchor="middle">variety</text><text style="font-size: 10px; font-family: Impact; fill: rgb(173, 73, 74);" transform="translate(-145,-246)rotate(-59.99999955470795)skewX(0)scale(0.9999999865388264,0.9999999865388264)" text-anchor="middle">applications</text><text style="font-size: 10px; font-family: Impact; fill: rgb(214, 97, 107);" transform="translate(-150,269)rotate(-59.99999955470795)skewX(0)scale(0.9999999865388264,0.9999999865388264)" text-anchor="middle">ranging</text><text style="font-size: 10px; font-family: Impact; fill: rgb(231, 150, 156);" transform="translate(-427,116)rotate(-59.99999955470794)skewX(0)scale(0.9999999865388264,0.9999999865388264)" text-anchor="middle">marketing</text><text style="font-size: 10px; font-family: Impact; fill: rgb(123, 65, 115);" transform="translate(-428,-135)rotate(-35.99999933864986)skewX(-3.1805546758693503e-15)scale(1.000000001758865,1.000000001758865)" text-anchor="middle">customer</text><text style="font-size: 10px; font-family: Impact; fill: rgb(165, 81, 148);" transform="translate(-375,-224)rotate(59.99999955470795)skewX(0)scale(0.9999999865388264,0.9999999865388264)" text-anchor="middle">service</text><text style="font-size: 10px; font-family: Impact; fill: rgb(206, 109, 189);" transform="translate(-438,-19)rotate(-35.99999933864986)skewX(-3.1805546758693503e-15)scale(1.000000001758865,1.000000001758865)" text-anchor="middle">Generally</text><text style="font-size: 10px; font-family: Impact; fill: rgb(222, 158, 214);" transform="translate(79,267)rotate(-11.999999380000418)skewX(-1.5902773034365522e-15)scale(1.0000000234520143,1.0000000234520143)" text-anchor="middle">speaking</text><text style="font-size: 10px; font-family: Impact; fill: rgb(57, 59, 121);" transform="translate(-103,-208)rotate(-59.99999955470794)skewX(0)scale(0.9999999865388264,0.9999999865388264)" text-anchor="middle">aims</text><text style="font-size: 10px; font-family: Impact; fill: rgb(82, 84, 163);" transform="translate(-331,270)rotate(59.99999955470795)scale(0.9999999865388264,0.9999999865388264)" text-anchor="middle">determine</text><text style="font-size: 10px; font-family: Impact; fill: rgb(107, 110, 207);" transform="translate(400,126)rotate(-11.999999380000418)skewX(-1.5902773034365522e-15)scale(1.0000000234520143,1.0000000234520143)" text-anchor="middle">speaker</text><text style="font-size: 10px; font-family: Impact; fill: rgb(156, 158, 222);" transform="translate(-62,270)rotate(59.99999955470795)skewX(0)scale(0.9999999865388264,0.9999999865388264)" text-anchor="middle">writer</text><text style="font-size: 10px; font-family: Impact; fill: rgb(99, 121, 57);" transform="translate(-292,42)rotate(11.999999380000418)skewX(1.5902773034365522e-15)scale(1.0000000234520143,1.0000000234520143)" text-anchor="middle">topic</text><text style="font-size: 10px; font-family: Impact; fill: rgb(140, 162, 82);" transform="translate(70,-242)rotate(59.99999955470794)skewX(0)scale(0.9999999865388264,0.9999999865388264)" text-anchor="middle">overall</text><text style="font-size: 10px; font-family: Impact; fill: rgb(181, 207, 107);" transform="translate(315,271)rotate(-59.99999955470795)scale(0.9999999865388264,0.9999999865388264)" text-anchor="middle">contextual</text><text style="font-size: 10px; font-family: Impact; fill: rgb(206, 219, 156);" transform="translate(-204,-245)rotate(-59.99999955470795)skewX(0)scale(0.9999999865388264,0.9999999865388264)" text-anchor="middle">polarity</text><text style="font-size: 10px; font-family: Impact; fill: rgb(140, 109, 49);" transform="translate(441,57)rotate(-11.999999380000416)skewX(-1.5902773034365522e-15)scale(1.0000000234520143,1.0000000234520143)" text-anchor="middle">document</text><text style="font-size: 10px; font-family: Impact; fill: rgb(189, 158, 57);" transform="translate(-407,-210)rotate(-59.99999955470795)scale(0.9999999865388264,0.9999999865388264)" text-anchor="middle">judgment</text><text style="font-size: 10px; font-family: Impact; fill: rgb(231, 186, 82);" transform="translate(-4,-280)rotate(-11.999999380000416)skewX(-1.5902773034365522e-15)scale(1.0000000234520143,1.0000000234520143)" text-anchor="middle">appraisal</text><text style="font-size: 10px; font-family: Impact; fill: rgb(231, 203, 148);" transform="translate(435,-157)rotate(35.99999933864986)skewX(3.1805546758693503e-15)scale(1.000000001758865,1.000000001758865)" text-anchor="middle">theory</text><text style="font-size: 10px; font-family: Impact; fill: rgb(132, 60, 57);" transform="translate(-108,-271)rotate(-11.999999380000418)skewX(-1.5902773034365522e-15)scale(1.0000000234520143,1.0000000234520143)" text-anchor="middle">writing</text><text style="font-size: 10px; font-family: Impact; fill: rgb(173, 73, 74);" transform="translate(-436,63)rotate(11.999999380000418)skewX(1.5902773034365522e-15)scale(1.0000000234520143,1.0000000234520143)" text-anchor="middle">intended</text><text style="font-size: 10px; font-family: Impact; fill: rgb(214, 97, 107);" transform="translate(443,-59)rotate(59.99999955470795)skewX(0)scale(0.9999999865388264,0.9999999865388264)" text-anchor="middle">communication</text><text style="font-size: 10px; font-family: Impact; fill: rgb(231, 150, 156);" transform="translate(123,-216)rotate(59.99999955470795)skewX(0)scale(0.9999999865388264,0.9999999865388264)" text-anchor="middle">effect</text><text style="font-size: 10px; font-family: Impact; fill: rgb(123, 65, 115);" transform="translate(-374,-148)rotate(11.999999380000418)skewX(1.5902773034365522e-15)scale(1.0000000234520143,1.0000000234520143)" text-anchor="middle">wishes</text><text style="font-size: 10px; font-family: Impact; fill: rgb(165, 81, 148);" transform="translate(392,-157)rotate(11.99999938000041)skewX(1.5902773034365522e-15)scale(1.0000000234520143,1.0000000234520143)" text-anchor="middle">reader</text><text style="font-size: 10px; font-family: Impact; fill: rgb(206, 109, 189);" transform="translate(440,224)rotate(-59.99999955470794)skewX(0)scale(0.9999999865388264,0.9999999865388264)" text-anchor="middle">Existing</text><text style="font-size: 10px; font-family: Impact; fill: rgb(222, 158, 214);" transform="translate(316,-150)rotate(-59.99999955470794)skewX(0)scale(0.9999999865388264,0.9999999865388264)" text-anchor="middle">grouped</text><text style="font-size: 10px; font-family: Impact; fill: rgb(57, 59, 121);" transform="translate(13,-43)rotate(-59.99999955470795)scale(0.9999999865388264,0.9999999865388264)" text-anchor="middle">four</text><text style="font-size: 10px; font-family: Impact; fill: rgb(82, 84, 163);" transform="translate(270,147)rotate(-35.99999933864986)skewX(-3.1805546758693503e-15)scale(1.000000001758865,1.000000001758865)" text-anchor="middle">main</text><text style="font-size: 10px; font-family: Impact; fill: rgb(107, 110, 207);" transform="translate(-332,-244)rotate(35.99999933864986)skewX(3.1805546758693503e-15)scale(1.000000001758865,1.000000001758865)" text-anchor="middle">techniques18</text><text style="font-size: 10px; font-family: Impact; fill: rgb(156, 158, 222);" transform="translate(-191,275)rotate(35.99999933864985)skewX(3.1805546758693503e-15)scale(1.000000001758865,1.000000001758865)" text-anchor="middle">classifies</text><text style="font-size: 10px; font-family: Impact; fill: rgb(99, 121, 57);" transform="translate(-94,272)rotate(-11.999999380000418)skewX(-1.5902773034365522e-15)scale(1.0000000234520143,1.0000000234520143)" text-anchor="middle">presence</text><text style="font-size: 10px; font-family: Impact; fill: rgb(140, 162, 82);" transform="translate(-102,-285)rotate(-11.999999380000416)skewX(-1.5902773034365522e-15)scale(1.0000000234520143,1.0000000234520143)" text-anchor="middle">unambiguous</text><text style="font-size: 10px; font-family: Impact; fill: rgb(181, 207, 107);" transform="translate(-351,-277)rotate(59.99999955470795)scale(0.9999999865388264,0.9999999865388264)" text-anchor="middle">happy</text><text style="font-size: 10px; font-family: Impact; fill: rgb(206, 219, 156);" transform="translate(53,-56)rotate(11.99999938000041)skewX(1.5902773034365522e-15)scale(1.0000000234520143,1.0000000234520143)" text-anchor="middle">sad</text><text style="font-size: 10px; font-family: Impact; fill: rgb(140, 109, 49);" transform="translate(-45,-246)rotate(-59.99999955470795)scale(0.9999999865388264,0.9999999865388264)" text-anchor="middle">afraid</text><text style="font-size: 10px; font-family: Impact; fill: rgb(189, 158, 57);" transform="translate(-241,273)rotate(-35.99999933864985)skewX(-3.1805546758693503e-15)scale(1.000000001758865,1.000000001758865)" text-anchor="middle">bored19</text><text style="font-size: 10px; font-family: Impact; fill: rgb(231, 186, 82);" transform="translate(435,-188)rotate(59.99999955470795)scale(0.9999999865388264,0.9999999865388264)" text-anchor="middle">detects</text><text style="font-size: 10px; font-family: Impact; fill: rgb(231, 203, 148);" transform="translate(-392,-194)rotate(-11.999999380000416)skewX(-1.5902773034365522e-15)scale(1.0000000234520143,1.0000000234520143)" text-anchor="middle">obvious</text><text style="font-size: 10px; font-family: Impact; fill: rgb(132, 60, 57);" transform="translate(-434,-58)rotate(-59.99999955470795)skewX(0)scale(0.9999999865388264,0.9999999865388264)" text-anchor="middle">assigns</text><text style="font-size: 10px; font-family: Impact; fill: rgb(173, 73, 74);" transform="translate(45,-285)rotate(-11.999999380000418)skewX(-1.5902773034365522e-15)scale(1.0000000234520143,1.0000000234520143)" text-anchor="middle">arbitrary</text><text style="font-size: 10px; font-family: Impact; fill: rgb(214, 97, 107);" transform="translate(-378,-282)rotate(35.99999933864986)skewX(3.1805546758693503e-15)scale(1.000000001758865,1.000000001758865)" text-anchor="middle">probable</text><text style="font-size: 10px; font-family: Impact; fill: rgb(231, 150, 156);" transform="translate(361,269)rotate(-11.999999380000416)skewX(-1.5902773034365522e-15)scale(1.0000000234520143,1.0000000234520143)" text-anchor="middle">particular</text><text style="font-size: 10px; font-family: Impact; fill: rgb(123, 65, 115);" transform="translate(-434,256)rotate(-59.99999955470795)scale(0.9999999865388264,0.9999999865388264)" text-anchor="middle">emotions20</text><text style="font-size: 10px; font-family: Impact; fill: rgb(165, 81, 148);" transform="translate(442,74)rotate(-59.99999955470795)scale(0.9999999865388264,0.9999999865388264)" text-anchor="middle">latent</text><text style="font-size: 10px; font-family: Impact; fill: rgb(206, 109, 189);" transform="translate(195,179)rotate(11.999999380000418)skewX(1.5902773034365522e-15)scale(1.0000000234520143,1.0000000234520143)" text-anchor="middle">support</text><text style="font-size: 10px; font-family: Impact; fill: rgb(222, 158, 214);" transform="translate(228,189)rotate(35.99999933864986)skewX(3.1805546758693503e-15)scale(1.000000001758865,1.000000001758865)" text-anchor="middle">vector</text><text style="font-size: 10px; font-family: Impact; fill: rgb(57, 59, 121);" transform="translate(-358,-39)rotate(35.99999933864986)skewX(3.1805546758693503e-15)scale(1.000000001758865,1.000000001758865)" text-anchor="middle">machines</text><text style="font-size: 10px; font-family: Impact; fill: rgb(82, 84, 163);" transform="translate(-222,69)rotate(11.999999380000418)skewX(1.5902773034365522e-15)scale(1.0000000234520143,1.0000000234520143)" text-anchor="middle">bag</text><text style="font-size: 10px; font-family: Impact; fill: rgb(107, 110, 207);" transform="translate(-445,252)rotate(-59.99999955470795)scale(0.9999999865388264,0.9999999865388264)" text-anchor="middle">Orientation</text><text style="font-size: 10px; font-family: Impact; fill: rgb(82, 84, 163);" transform="translate(-148,-3)rotate(11.999999380000418)skewX(1.5902773034365522e-15)scale(1.0000000234520143,1.0000000234520143)" text-anchor="middle"></text><text style="font-size: 10px; font-family: Impact; fill: rgb(99, 121, 57);" transform="translate(442,269)rotate(-59.99999955470795)skewX(0)scale(0.9999999865388264,0.9999999865388264)" text-anchor="middle">Mutual</text><text style="font-size: 10px; font-family: Impact; fill: rgb(140, 162, 82);" transform="translate(404,139)rotate(-11.999999380000418)skewX(-1.5902773034365522e-15)scale(1.0000000234520143,1.0000000234520143)" text-anchor="middle">Peter</text><text style="font-size: 10px; font-family: Impact; fill: rgb(181, 207, 107);" transform="translate(-394,271)rotate(-35.99999933864986)skewX(-3.1805546758693503e-15)scale(1.000000001758865,1.000000001758865)" text-anchor="middle">Turneys1</text><text style="font-size: 10px; font-family: Impact; fill: rgb(206, 219, 156);" transform="translate(-69,-144)rotate(11.999999380000418)skewX(1.5902773034365522e-15)scale(1.0000000234520143,1.0000000234520143)" text-anchor="middle">work</text><text style="font-size: 10px; font-family: Impact; fill: rgb(181, 207, 107);" transform="translate(198,-145)rotate(35.99999933864986)skewX(3.1805546758693503e-15)scale(1.000000001758865,1.000000001758865)" text-anchor="middle">area</text><text style="font-size: 10px; font-family: Impact; fill: rgb(140, 109, 49);" transform="translate(-171,-13)rotate(-35.99999933864985)skewX(-3.1805546758693503e-15)scale(1.000000001758865,1.000000001758865)" text-anchor="middle">try</text><text style="font-size: 10px; font-family: Impact; fill: rgb(189, 158, 57);" transform="translate(16,-186)rotate(59.99999955470794)skewX(0)scale(0.9999999865388264,0.9999999865388264)" text-anchor="middle">holder</text><text style="font-size: 10px; font-family: Impact; fill: rgb(231, 186, 82);" transform="translate(439,188)rotate(59.99999955470795)skewX(0)scale(0.9999999865388264,0.9999999865388264)" text-anchor="middle">person</text><text style="font-size: 10px; font-family: Impact; fill: rgb(231, 203, 148);" transform="translate(351,-76)rotate(-59.99999955470794)skewX(0)scale(0.9999999865388264,0.9999999865388264)" text-anchor="middle">entity</text><text style="font-size: 10px; font-family: Impact; fill: rgb(132, 60, 57);" transform="translate(-300,-197)rotate(11.999999380000416)skewX(1.5902773034365522e-15)scale(1.0000000234520143,1.0000000234520143)" text-anchor="middle">felt21</text><text style="font-size: 10px; font-family: Impact; fill: rgb(173, 73, 74);" transform="translate(-126,-128)rotate(11.999999380000418)skewX(1.5902773034365522e-15)scale(1.0000000234520143,1.0000000234520143)" text-anchor="middle">mine</text><text style="font-size: 10px; font-family: Impact; fill: rgb(214, 97, 107);" transform="translate(-443,171)rotate(-59.99999955470795)scale(0.9999999865388264,0.9999999865388264)" text-anchor="middle">context</text><text style="font-size: 10px; font-family: Impact; fill: rgb(231, 150, 156);" transform="translate(-435,-152)rotate(-11.999999380000418)skewX(-1.5902773034365522e-15)scale(1.0000000234520143,1.0000000234520143)" text-anchor="middle">feature</text><text style="font-size: 10px; font-family: Impact; fill: rgb(123, 65, 115);" transform="translate(106,277)rotate(-11.999999380000416)skewX(-1.5902773034365522e-15)scale(1.0000000234520143,1.0000000234520143)" text-anchor="middle">relationships</text><text style="font-size: 10px; font-family: Impact; fill: rgb(165, 81, 148);" transform="translate(446,-283)rotate(11.99999938000041)skewX(1.5902773034365522e-15)scale(1.0000000234520143,1.0000000234520143)" text-anchor="middle">relations</text><text style="font-size: 10px; font-family: Impact; fill: rgb(206, 109, 189);" transform="translate(-443,-30)rotate(-35.99999933864986)skewX(-3.1805546758693503e-15)scale(1.000000001758865,1.000000001758865)" text-anchor="middle">obtained</text><text style="font-size: 10px; font-family: Impact; fill: rgb(222, 158, 214);" transform="translate(50,275)rotate(59.99999955470795)scale(0.9999999865388264,0.9999999865388264)" text-anchor="middle">deep</text><text style="font-size: 10px; font-family: Impact; fill: rgb(57, 59, 121);" transform="translate(194,-202)rotate(35.99999933864985)skewX(3.1805546758693503e-15)scale(1.000000001758865,1.000000001758865)" text-anchor="middle">parsing</text><text style="font-size: 10px; font-family: Impact; fill: rgb(82, 84, 163);" transform="translate(446,141)rotate(-11.999999380000418)skewX(-1.5902773034365522e-15)scale(1.0000000234520143,1.0000000234520143)" text-anchor="middle">text22</text><text style="font-size: 10px; font-family: Impact; fill: rgb(107, 110, 207);" transform="translate(445,-195)rotate(59.99999955470794)skewX(0)scale(0.9999999865388264,0.9999999865388264)" text-anchor="middle">Unlike</text><text style="font-size: 10px; font-family: Impact; fill: rgb(156, 158, 222);" transform="translate(-368,49)rotate(59.99999955470794)skewX(0)scale(0.9999999865388264,0.9999999865388264)" text-anchor="middle">purely</text><text style="font-size: 10px; font-family: Impact; fill: rgb(181, 207, 107);" transform="translate(15,280)rotate(-11.999999380000416)skewX(-1.5902773034365522e-15)scale(1.0000000234520143,1.0000000234520143)" text-anchor="middle">ontologies</text><text style="font-size: 10px; font-family: Impact; fill: rgb(206, 219, 156);" transform="translate(338,285)rotate(11.99999938000041)skewX(1.5902773034365522e-15)scale(1.0000000234520143,1.0000000234520143)" text-anchor="middle">networks</text><text style="font-size: 10px; font-family: Impact; fill: rgb(140, 109, 49);" transform="translate(441,102)rotate(59.99999955470794)skewX(0)scale(0.9999999865388264,0.9999999865388264)" text-anchor="middle">hence</text><text style="font-size: 10px; font-family: Impact; fill: rgb(231, 186, 82);" transform="translate(106,36)rotate(-35.99999933864985)skewX(-3.1805546758693503e-15)scale(1.000000001758865,1.000000001758865)" text-anchor="middle">subtle</text><text style="font-size: 10px; font-family: Impact; fill: rgb(231, 203, 148);" transform="translate(-444,50)rotate(11.999999380000416)skewX(1.5902773034365522e-15)scale(1.0000000234520143,1.0000000234520143)" text-anchor="middle">manner</text><text style="font-size: 10px; font-family: Impact; fill: rgb(132, 60, 57);" transform="translate(-445,121)rotate(-59.99999955470794)skewX(0)scale(0.9999999865388264,0.9999999865388264)" text-anchor="middle">explicitly</text><text style="font-size: 10px; font-family: Impact; fill: rgb(173, 73, 74);" transform="translate(182,-252)rotate(11.999999380000418)skewX(1.5902773034365522e-15)scale(1.0000000234520143,1.0000000234520143)" text-anchor="middle">convey</text><text style="font-size: 10px; font-family: Impact; fill: rgb(231, 186, 82);" transform="translate(-441,-71)rotate(-59.99999955470794)skewX(0)scale(0.9999999865388264,0.9999999865388264)" text-anchor="middle">relevant</text><text style="font-size: 10px; font-family: Impact; fill: rgb(231, 150, 156);" transform="translate(233,-283)rotate(35.99999933864986)skewX(3.1805546758693503e-15)scale(1.000000001758865,1.000000001758865)" text-anchor="middle">linked</text><text style="font-size: 10px; font-family: Impact; fill: rgb(123, 65, 115);" transform="translate(448,16)rotate(35.99999933864986)skewX(3.1805546758693503e-15)scale(1.000000001758865,1.000000001758865)" text-anchor="middle">so23</text><text style="font-size: 10px; font-family: Impact; fill: rgb(165, 81, 148);" transform="translate(-358,276)rotate(-11.999999380000416)skewX(-1.5902773034365522e-15)scale(1.0000000234520143,1.0000000234520143)" text-anchor="middle">software</text><text style="font-size: 10px; font-family: Impact; fill: rgb(206, 109, 189);" transform="translate(339,263)rotate(-35.99999933864985)skewX(-3.1805546758693503e-15)scale(1.000000001758865,1.000000001758865)" text-anchor="middle">tools</text><text style="font-size: 10px; font-family: Impact; fill: rgb(222, 158, 214);" transform="translate(-276,278)rotate(-59.99999955470794)skewX(0)scale(0.9999999865388264,0.9999999865388264)" text-anchor="middle">deploy</text><text style="font-size: 10px; font-family: Impact; fill: rgb(206, 109, 189);" transform="translate(377,282)rotate(59.99999955470795)skewX(0)scale(0.9999999865388264,0.9999999865388264)" text-anchor="middle">large</text><text style="font-size: 10px; font-family: Impact; fill: rgb(82, 84, 163);" transform="translate(-54,194)rotate(35.99999933864985)skewX(3.1805546758693503e-15)scale(1.000000001758865,1.000000001758865)" text-anchor="middle">texts</text><text style="font-size: 10px; font-family: Impact; fill: rgb(107, 110, 207);" transform="translate(-182,-288)rotate(-11.999999380000416)skewX(-1.5902773034365522e-15)scale(1.0000000234520143,1.0000000234520143)" text-anchor="middle">pages</text><text style="font-size: 10px; font-family: Impact; fill: rgb(156, 158, 222);" transform="translate(-312,280)rotate(59.99999955470795)skewX(0)scale(0.9999999865388264,0.9999999865388264)" text-anchor="middle">news</text><text style="font-size: 10px; font-family: Impact; fill: rgb(99, 121, 57);" transform="translate(445,-80)rotate(59.99999955470795)skewX(0)scale(0.9999999865388264,0.9999999865388264)" text-anchor="middle">internet</text><text style="font-size: 10px; font-family: Impact; fill: rgb(140, 162, 82);" transform="translate(-79,279)rotate(-11.999999380000416)skewX(-1.5902773034365522e-15)scale(1.0000000234520143,1.0000000234520143)" text-anchor="middle">groups</text><text style="font-size: 10px; font-family: Impact; fill: rgb(181, 207, 107);" transform="translate(-375,220)rotate(35.99999933864985)skewX(3.1805546758693503e-15)scale(1.000000001758865,1.000000001758865)" text-anchor="middle">blogs</text><text style="font-size: 10px; font-family: Impact; fill: rgb(206, 219, 156);" transform="translate(142,-108)rotate(59.99999955470794)skewX(0)scale(0.9999999865388264,0.9999999865388264)" text-anchor="middle">make</text><text style="font-size: 10px; font-family: Impact; fill: rgb(189, 158, 57);" transform="translate(27,-115)rotate(-11.999999380000418)skewX(-1.5902773034365522e-15)scale(1.0000000234520143,1.0000000234520143)" text-anchor="middle">first</text><text style="font-size: 10px; font-family: Impact; fill: rgb(231, 186, 82);" transform="translate(451,-264)rotate(-59.99999955470795)skewX(0)scale(0.9999999865388264,0.9999999865388264)" text-anchor="middle">noun</text><text style="font-size: 10px; font-family: Impact; fill: rgb(231, 203, 148);" transform="translate(-378,-84)rotate(-35.99999933864986)skewX(-3.1805546758693503e-15)scale(1.000000001758865,1.000000001758865)" text-anchor="middle">pair</text><text style="font-size: 10px; font-family: Impact; fill: rgb(231, 150, 156);" transform="translate(-408,246)rotate(-35.99999933864986)skewX(-3.1805546758693503e-15)scale(1.000000001758865,1.000000001758865)" text-anchor="middle">often</text><text style="font-size: 10px; font-family: Impact; fill: rgb(123, 65, 115);" transform="translate(191,283)rotate(11.999999380000416)skewX(1.5902773034365522e-15)scale(1.0000000234520143,1.0000000234520143)" text-anchor="middle">topics</text><text style="font-size: 10px; font-family: Impact; fill: rgb(173, 73, 74);" transform="translate(-29,140)rotate(-59.99999955470795)skewX(0)scale(0.9999999865388264,0.9999999865388264)" text-anchor="middle">fairly</text><text style="font-size: 10px; font-family: Impact; fill: rgb(165, 81, 148);" transform="translate(178,-98)rotate(59.99999955470795)scale(0.9999999865388264,0.9999999865388264)" text-anchor="middle">vs</text><text style="font-size: 10px; font-family: Impact; fill: rgb(206, 109, 189);" transform="translate(-116,-258)rotate(-11.999999380000418)skewX(-1.5902773034365522e-15)scale(1.0000000234520143,1.0000000234520143)" text-anchor="middle">issue</text><text style="font-size: 10px; font-family: Impact; fill: rgb(57, 59, 121);" transform="translate(127,-25)rotate(-11.99999938000041)skewX(-1.5902773034365522e-15)scale(1.0000000234520143,1.0000000234520143)" text-anchor="middle">rules</text><text style="font-size: 10px; font-family: Impact; fill: rgb(82, 84, 163);" transform="translate(-400,-284)rotate(35.99999933864986)skewX(3.1805546758693503e-15)scale(1.000000001758865,1.000000001758865)" text-anchor="middle">domain</text><text style="font-size: 10px; font-family: Impact; fill: rgb(156, 158, 222);" transform="translate(-68,-106)rotate(59.99999955470795)skewX(0)scale(0.9999999865388264,0.9999999865388264)" text-anchor="middle">recall</text><text style="font-size: 10px; font-family: Impact; fill: rgb(99, 121, 57);" transform="translate(-17,-289)rotate(-11.999999380000418)skewX(-1.5902773034365522e-15)scale(1.0000000234520143,1.0000000234520143)" text-anchor="middle">agree</text><text style="font-size: 10px; font-family: Impact; fill: rgb(140, 162, 82);" transform="translate(-299,54)rotate(11.999999380000416)skewX(1.5902773034365522e-15)scale(1.0000000234520143,1.0000000234520143)" text-anchor="middle">7934</text><text style="font-size: 10px; font-family: Impact; fill: rgb(181, 207, 107);" transform="translate(40,287)rotate(-11.999999380000416)skewX(-1.5902773034365522e-15)scale(1.0000000234520143,1.0000000234520143)" text-anchor="middle">Thus</text><text style="font-size: 10px; font-family: Impact; fill: rgb(181, 207, 107);" transform="translate(-202,-124)rotate(-35.99999933864986)skewX(-3.1805546758693503e-15)scale(1.000000001758865,1.000000001758865)" text-anchor="middle">70</text><text style="font-size: 10px; font-family: Impact; fill: rgb(206, 109, 189);" transform="translate(-443,149)rotate(-59.99999955470795)scale(0.9999999865388264,0.9999999865388264)" text-anchor="middle">even</text><text style="font-size: 10px; font-family: Impact; fill: rgb(206, 219, 156);" transform="translate(412,288)rotate(-11.999999380000416)skewX(-1.5902773034365522e-15)scale(1.0000000234520143,1.0000000234520143)" text-anchor="middle">sound</text><text style="font-size: 10px; font-family: Impact; fill: rgb(140, 109, 49);" transform="translate(312,-22)rotate(-35.99999933864986)skewX(-3.1805546758693503e-15)scale(1.000000001758865,1.000000001758865)" text-anchor="middle">100</text><text style="font-size: 10px; font-family: Impact; fill: rgb(189, 158, 57);" transform="translate(56,-149)rotate(-11.999999380000416)skewX(-1.5902773034365522e-15)scale(1.0000000234520143,1.0000000234520143)" text-anchor="middle">still</text><text style="font-size: 10px; font-family: Impact; fill: rgb(231, 186, 82);" transform="translate(447,282)rotate(-59.99999955470794)skewX(0)scale(0.9999999865388264,0.9999999865388264)" text-anchor="middle">much</text><text style="font-size: 10px; font-family: Impact; fill: rgb(231, 203, 148);" transform="translate(-29,48)rotate(35.99999933864986)skewX(3.1805546758693503e-15)scale(1.000000001758865,1.000000001758865)" text-anchor="middle">35</text><text style="font-size: 10px; font-family: Impact; fill: rgb(231, 203, 148);" transform="translate(102,161)rotate(35.99999933864986)skewX(3.1805546758693503e-15)scale(1.000000001758865,1.000000001758865)" text-anchor="middle">rather</text><text style="font-size: 10px; font-family: Impact; fill: rgb(214, 97, 107);" transform="translate(-310,-248)rotate(11.999999380000418)skewX(1.5902773034365522e-15)scale(1.0000000234520143,1.0000000234520143)" text-anchor="middle">binary</text><text style="font-size: 10px; font-family: Impact; fill: rgb(231, 150, 156);" transform="translate(-446,-137)rotate(-35.99999933864986)skewX(-3.1805546758693503e-15)scale(1.000000001758865,1.000000001758865)" text-anchor="middle">close</text><text style="font-size: 40px; font-family: Impact; fill: rgb(214, 97, 107);" transform="translate(332,-221)rotate(36)" text-anchor="middle">expressions</text><text style="font-size: 29px; font-family: Impact; fill: rgb(189, 158, 57);" transform="translate(169,240)rotate(12.000000000000014)" text-anchor="middle">AveragingMethodjava</text><text style="font-size: 29px; font-family: Impact; fill: rgb(140, 109, 49);" transform="translate(343,248)rotate(12.000000000000014)" text-anchor="middle">maltparser</text><text style="font-size: 29px; font-family: Impact; fill: rgb(123, 65, 115);" transform="translate(365,-241)rotate(36)" text-anchor="middle">processing</text><text style="font-size: 29px; font-family: Impact; fill: rgb(165, 81, 148);" transform="translate(-395,238)rotate(36)" text-anchor="middle">attitude</text><text style="font-size: 29px; font-family: Impact; fill: rgb(206, 109, 189);" transform="translate(100,254)rotate(12.000000000000014)" text-anchor="middle">evaluation</text><text style="font-size: 29px; font-family: Impact; fill: rgb(222, 158, 214);" transform="translate(399,-249)rotate(36)" text-anchor="middle">Keyword</text><text style="font-size: 29px; font-family: Impact; fill: rgb(57, 59, 121);" transform="translate(-423,-260)rotate(-60)" text-anchor="middle">hotel</text><text style="font-size: 10px; font-family: Impact; fill: rgb(82, 84, 163);" transform="translate(-446,228)rotate(-60)" text-anchor="middle">maintains</text><text style="font-size: 10px; font-family: Impact; fill: rgb(107, 110, 207);" transform="translate(237,276)rotate(-12)" text-anchor="middle">opinionated</text><text style="font-size: 10px; font-family: Impact; fill: rgb(156, 158, 222);" transform="translate(-278,-286)rotate(12.000000000000014)" text-anchor="middle">dependency</text><text style="font-size: 10px; font-family: Impact; fill: rgb(99, 121, 57);" transform="translate(-390,-225)rotate(60)" text-anchor="middle">automate</text><text style="font-size: 10px; font-family: Impact; fill: rgb(140, 162, 82);" transform="translate(273,281)rotate(-12)" text-anchor="middle">collections</text><text style="font-size: 10px; font-family: Impact; fill: rgb(181, 207, 107);" transform="translate(136,284)rotate(-12)" text-anchor="middle">media24</text><text style="font-size: 10px; font-family: Impact; fill: rgb(206, 219, 156);" transform="translate(-127,285)rotate(12.000000000000014)" text-anchor="middle">resources</text><text style="font-size: 10px; font-family: Impact; fill: rgb(140, 109, 49);" transform="translate(-212,285)rotate(-12)" text-anchor="middle">images</text><text style="font-size: 10px; font-family: Impact; fill: rgb(189, 158, 57);" transform="translate(-350,286)rotate(-12)" text-anchor="middle">utilizing</text><text style="font-size: 10px; font-family: Impact; fill: rgb(231, 186, 82);" transform="translate(-447,-84)rotate(-60)" text-anchor="middle">adjective</text><text style="font-size: 10px; font-family: Impact; fill: rgb(231, 203, 148);" transform="translate(-447,-272)rotate(-60)" text-anchor="middle">historical</text><text style="font-size: 10px; font-family: Impact; fill: rgb(132, 60, 57);" transform="translate(-447,204)rotate(-12)" text-anchor="middle">impacts</text><text style="font-size: 10px; font-family: Impact; fill: rgb(173, 73, 74);" transform="translate(-17,-110)rotate(36)" text-anchor="middle">parse</text><text style="font-size: 10px; font-family: Impact; fill: rgb(214, 97, 107);" transform="translate(-444,21)rotate(-60)" text-anchor="middle">raters</text><text style="font-size: 10px; font-family: Impact; fill: rgb(231, 150, 156);" transform="translate(317,24)rotate(60)" text-anchor="middle">answer</text><text style="font-size: 10px; font-family: Impact; fill: rgb(123, 65, 115);" transform="translate(127,-287)rotate(-36)" text-anchor="middle">scale</text><text style="font-size: 10px; font-family: Impact; fill: rgb(165, 81, 148);" transform="translate(-285,271)rotate(-60)" text-anchor="middle">better</text></g></svg>